<?xml version="1.0" encoding="UTF-8"?>
<svg xmlns="http://www.w3.org/2000/svg" version="1.1" viewBox="0 0 720 720">
  <defs>
    <style>
      .cls-1 {
        fill: #fff;
        fill-rule: evenodd;
      }
    </style>
  </defs>
  <!-- Generator: Adobe Illustrator 28.7.1, SVG Export Plug-In . SVG Version: 1.2.0 Build 142)  -->
  <g>
    <g id="Layer_1">
      <g>
        <path class="cls-1" d="M394.5,482.2c10.7,8.5,23.8,16.8,39.3,24.8,47.2-128.3,40.3-268-4.8-357.9-18.3-36.4-49.9-61.8-83.9-56.1-48.4,8.1-81.7,61.3-101.4,151.2,13-40.3,30.7-77,47.1-99.9,14.6-20.5,30-32.3,45-36.5,52.1-14.7,78,57.7,87.5,90.7,21.8,75.6,12.7,176.8-28.7,283.8h0ZM565.4,538.4c-15.2,2.4-31.4,1.5-47.4-2.2,14.6-56.4,17.9-115.3,9.5-173,25.8,54.7,38.8,114.7,37.9,175.2h0ZM454.9,515.2c36.7-104.6,39.1-217.2,7.5-323.5,53.3,104.4,68.2,226.3,38.1,339.7-13.7-2.2-26.1-5.2-45.7-16.2Z"/>
        <path class="cls-1" d="M412,324.3c1.9-13.6,2.5-29.1,1.7-46.6-134,23-250.8,98.9-305.6,183.2-22.2,34.1-28.2,74.4-6.3,101.1,31.2,38.1,93.5,40.5,180.9,12.8-41.2,8.8-81.6,11.7-109.5,9-24.9-2.5-42.8-10-53.9-21-38.7-38,10.7-96.8,34.3-121.6,54.2-56.8,145.8-99.4,258.6-116.9h0ZM374.9,147.2c9.6,12,17,26.6,21.8,42.4-55.9,15.5-108.1,42.1-153.6,78.2,34.2-49.9,79.3-91.1,131.9-120.6h0ZM410.2,255.2c-108.4,20.3-206.5,74.5-282.2,155.2,63.2-98.6,160.6-172.6,273.3-203.1,5,13.1,8.6,25.3,8.9,47.9Z"/>
        <path class="cls-1" d="M267.4,388c-12.7,5.1-26.3,12.4-41,21.8,86.8,105.3,210.5,169.1,310.4,174.7,40.5,2.3,78.2-12.6,90.2-45,17.2-46.2-11.9-101.8-79.4-164,28.2,31.5,50.9,65.2,62.5,91,10.3,22.9,12.8,42.3,8.9,57.5-13.4,52.8-88.6,39.1-121.8,30.9-76-18.8-158.5-77.4-229.9-166.9h0ZM133.5,508.9c5.5-14.4,14.4-28.1,25.6-40.2,41.3,41,90.3,73.2,144.1,94.8-60-4.8-118.1-23.5-169.7-54.6h0ZM208.8,424.1c71.7,84.3,167.4,142.7,274.6,168.3-116.5-5.8-228.9-53.7-311.4-136.6,8.8-10.9,17.5-20.2,36.8-31.7Z"/>
      </g>
    </g>
  </g>
</svg>