<svg xmlns="http://www.w3.org/2000/svg" viewBox="0 0 256 250">
  <rect width="256" height="250" fill="#00005B" rx="50"/>
  <path fill="#9999FF" d="M128 30H0v196h256V30H128zM97.5 157l-9-31H62l-8.5 31H33l28-79h22l28.5 79H97.5zM74 110l-6.5-22.5c-1.5-5-3-11-4-16h-.5c-1 5-2.5 11-4 16L52 110h22zm101 14.5h-38c.5 14 9.5 21 22.5 21 7 0 12.5-1 18-3l2.5 15c-6.5 2.5-14.5 4-24.5 4-24 0-38-14.5-38-38.5 0-19.5 11.5-41 36-41 23.5 0 32 19 32 37 0 4-.5 6.5-1 9l-9.5-.5zm-38-15h22.5c0-7-3-18-12-18-8.5 0-10 10.5-10.5 18z"/>
</svg>

