<svg xmlns="http://www.w3.org/2000/svg" viewBox="0 0 256 256">
  <rect width="256" height="256" fill="#0ACF83" rx="28"/>
  <path fill="#FFF" d="M128 216c-22.1 0-40-17.9-40-40v-40h40c22.1 0 40 17.9 40 40s-17.9 40-40 40z"/>
  <path fill="#A259FF" d="M88 96c0-22.1 17.9-40 40-40s40 17.9 40 40-17.9 40-40 40-40-17.9-40-40z"/>
  <path fill="#F24E1E" d="M88 56c0-22.1 17.9-40 40-40s40 17.9 40 40-17.9 40-40 40-40-17.9-40-40z"/>
  <path fill="#FF7262" d="M128 136h40c22.1 0 40-17.9 40-40s-17.9-40-40-40h-40v80z"/>
  <path fill="#1ABCFE" d="M168 136c22.1 0 40 17.9 40 40s-17.9 40-40 40-40-17.9-40-40 17.9-40 40-40z"/>
</svg>

