<svg xmlns="http://www.w3.org/2000/svg" viewBox="0 0 256 250">
  <rect width="256" height="250" fill="#300000" rx="50"/>
  <path fill="#FF9A00" d="M128 30H0v196h256V30H128zM97.5 157l-9-31H62l-8.5 31H33l28-79h22l28.5 79H97.5zm13.5 0V97.5c0-10.5-.5-22.5-1-32.5h19l1 13h.5c6-9 16-15 30-15 20.5 0 36 17 36 42.5 0 30-19 45-39 45-11.5 0-20-5-24.5-13h-.5V157H111zM74 110l-6.5-22.5c-1.5-5-3-11-4-16h-.5c-1 5-2.5 11-4 16L52 110h22zm88-5c0-3-.5-6.5-2-9.5-3.5-6.5-10-11-17.5-11-12 0-20 10-20 23.5 0 12 7 22.5 20 22.5 8 0 14.5-5 17.5-11 1.5-3 2-7 2-10.5V105z"/>
</svg>

