<svg xmlns="http://www.w3.org/2000/svg" viewBox="0 0 256 250">
  <rect width="256" height="250" fill="#001E36" rx="50"/>
  <path fill="#31A8FF" d="M90.5 104.5c-5.5 0-10.5 1-13.5 2v50c3.5 1.5 7.5 2 13 2 19.5 0 32-10 32-28.5.5-16-10.5-25.5-31.5-25.5zM128 30H0v196h256V30H128zm-41.5 125c-8 0-13.5-.5-16.5-1v52H50V85.5c8-2 19-3.5 35.5-3.5 16 0 27 3 34.5 9 7 5.5 11.5 14.5 11.5 25.5 0 11.5-3.5 21-10 27.5-7.5 7.5-19 11-32.5 11zm82-2c11 0 18.5-2 23.5-3.5l3.5 17c-5.5 2.5-15 5-27.5 5-37.5 0-55-23.5-55-54.5 0-33.5 21.5-57.5 58.5-57.5 12 0 20.5 2.5 25.5 4.5l-5 17.5c-4.5-2-11-4-20-4-22 0-38 13.5-38 38.5 0 23.5 14 37.5 35 37.5z"/>
</svg>

