<svg xmlns="http://www.w3.org/2000/svg" viewBox="0 0 256 250">
  <rect width="256" height="250" fill="#00005B" rx="50"/>
  <path fill="#9999FF" d="M128 30H0v196h256V30H128zM90.5 104.5c-5.5 0-10.5 1-13.5 2v50c3.5 1.5 7.5 2 13 2 19.5 0 32-10 32-28.5.5-16-10.5-25.5-31.5-25.5zM86.5 155c-8 0-13.5-.5-16.5-1v52H50V85.5c8-2 19-3.5 35.5-3.5 16 0 27 3 34.5 9 7 5.5 11.5 14.5 11.5 25.5 0 11.5-3.5 21-10 27.5-7.5 7.5-19 11-32.5 11zm53.5 2V97.5c0-10.5-.5-22.5-1-32.5h19l1 13h.5c6-9 16-15 30-15 8.5 0 15 2.5 18.5 7 3 4 4.5 9.5 4.5 19v68h-20V91.5c0-12.5-4.5-19-14-19-7.5 0-13 5.5-15 11-1 1.5-1.5 4-1.5 6.5v67H140z"/>
</svg>

