<svg xmlns="http://www.w3.org/2000/svg" viewBox="0 0 256 256">
  <rect width="256" height="256" fill="#6C2BD9" rx="28"/>
  <path fill="#FFF" d="M80 90c0-6 5-10 10-10h30c6 0 10 4 10 10s-4 10-10 10H90c-6 0-10-4-10-10z"/>
  <path fill="#FFF" d="M80 128c0-6 5-10 10-10h50c6 0 10 4 10 10s-4 10-10 10H90c-6 0-10-4-10-10z"/>
  <path fill="#FFF" d="M80 166c0-6 5-10 10-10h70c6 0 10 4 10 10s-4 10-10 10H90c-6 0-10-4-10-10z"/>
  <circle cx="155" cy="90" r="8" fill="#A78BFA"/>
  <circle cx="155" cy="128" r="8" fill="#A78BFA"/>
  <circle cx="155" cy="166" r="8" fill="#A78BFA"/>
</svg>
