<svg xmlns="http://www.w3.org/2000/svg" viewBox="0 0 256 256">
  <rect width="256" height="256" fill="#00A1E0" rx="28"/>
  <g fill="#FFF">
    <path d="M110 85c10 0 18 5 23 12 5-3 11-5 18-5 20 0 36 16 36 36 0 3-0 5-1 8 11 5 19 16 19 29 0 18-14 32-32 32-5 0-10-1-14-3-5 11-16 19-29 19-7 0-14-2-19-6-5 8-14 13-24 13-16 0-29-13-29-29 0-2 0-4 1-6-12-4-20-15-20-28 0-16 13-29 29-29 4 0 8 1 11 2 6-9 16-15 27-15z"/>
    <circle cx="95" cy="102" r="6"/>
    <circle cx="118" cy="98" r="6"/>
    <circle cx="140" cy="112" r="5"/>
    <circle cx="165" cy="125" r="5"/>
    <circle cx="170" cy="148" r="4"/>
    <circle cx="155" cy="165" r="5"/>
    <circle cx="130" cy="172" r="5"/>
    <circle cx="105" cy="168" r="5"/>
    <circle cx="85" cy="155" r="4"/>
    <circle cx="75" cy="135" r="5"/>
  </g>
</svg>
