<svg xmlns="http://www.w3.org/2000/svg" viewBox="0 0 256 256">
  <rect width="256" height="256" fill="#00758F" rx="28"/>
  <path fill="#FFF" d="M100 100c-16.569 0-30 4.477-30 10v12c0 5.523 13.431 10 30 10s30-4.477 30-10v-12c0-5.523-13.431-10-30-10zm0-8c19.33 0 35 5.373 35 12v12c0 6.627-15.67 12-35 12s-35-5.373-35-12v-12c0-6.627 15.67-12 35-12z"/>
  <path fill="#FFF" d="M70 122v12c0 5.523 13.431 10 30 10s30-4.477 30-10v-12c-5.82 3.58-16.18 6-30 6s-24.18-2.42-30-6zm0 22v12c0 5.523 13.431 10 30 10s30-4.477 30-10v-12c-5.82 3.58-16.18 6-30 6s-24.18-2.42-30-6z"/>
  <text x="140" y="140" font-family="Arial, sans-serif" font-size="48" font-weight="bold" fill="#FFF">SQL</text>
</svg>
