<svg xmlns="http://www.w3.org/2000/svg" viewBox="0 0 256 256">
  <rect width="256" height="256" fill="#003B57" rx="28"/>
  <path fill="#FFF" d="M85.833 102.5c-9.167 0-16.667 1.667-22.5 5-5.833 3.333-8.75 8.333-8.75 15s2.917 11.667 8.75 15c5.833 3.333 13.333 5 22.5 5h17.5c6.667 0 11.667 1.333 15 4 3.333 2.667 5 6.333 5 11 0 4.667-1.667 8.333-5 11-3.333 2.667-8.333 4-15 4h-17.5c-6.667 0-11.667-1.333-15-4-3.333-2.667-5-6.333-5-11h-15c0 8.333 2.917 15 8.75 20 5.833 5 13.333 7.5 22.5 7.5h17.5c9.167 0 16.667-2.5 22.5-7.5 5.833-5 8.75-11.667 8.75-20 0-8.333-2.917-15-8.75-20-5.833-5-13.333-7.5-22.5-7.5h-17.5c-6.667 0-11.667-1.333-15-4-3.333-2.667-5-6.333-5-11 0-4.667 1.667-8.333 5-11 3.333-2.667 8.333-4 15-4h17.5c6.667 0 11.667 1.333 15 4 3.333 2.667 5 6.333 5 11h15c0-8.333-2.917-15-8.75-20-5.833-5-13.333-7.5-22.5-7.5h-17.5zm77.5 0v77.5c0 4.667 1.667 8.333 5 11 3.333 2.667 8.333 4 15 4s11.667-1.333 15-4c3.333-2.667 5-6.333 5-11v-10h15c0 8.333-2.917 15-8.75 20-5.833 5-13.333 7.5-22.5 7.5-9.167 0-16.667-2.5-22.5-7.5-5.833-5-8.75-11.667-8.75-20v-77.5h15z"/>
</svg>

