<svg xmlns="http://www.w3.org/2000/svg" viewBox="0 0 256 256">
  <rect width="256" height="256" fill="#3178C6" rx="28"/>
  <path fill="#FFF" d="M56.612 128.85h33.903v94.023h28.959v-94.023h33.903v-23.625H56.612v23.625Zm79.605-23.625v118.648h27.209v-37.674c7.409 5.509 15.848 8.263 25.318 8.263 7.409 0 14.277-1.377 20.604-4.131 6.328-2.754 11.655-6.419 15.982-10.995 4.328-4.576 7.674-9.967 10.039-16.172 2.365-6.206 3.548-12.715 3.548-19.528 0-6.813-1.137-13.322-3.411-19.528-2.274-6.206-5.575-11.597-9.902-16.172-4.327-4.576-9.609-8.241-15.845-10.995-6.237-2.754-13.15-4.131-20.74-4.131-9.471 0-17.819 2.709-25.045 8.126v-6.506h-27.209v-.001Zm27.209 59.324c0-4.712.863-9.058 2.588-13.04 1.726-3.981 4.053-7.417 6.981-10.308 2.929-2.89 6.324-5.145 10.186-6.763 3.863-1.617 7.863-2.426 12-2.426 4.275 0 8.321.809 12.137 2.426 3.817 1.618 7.166 3.873 10.049 6.763 2.882 2.891 5.163 6.327 6.844 10.308 1.68 3.982 2.52 8.328 2.52 13.04 0 4.713-.794 9.059-2.383 13.041-1.589 3.981-3.798 7.417-6.628 10.308-2.829 2.89-6.179 5.145-10.049 6.763-3.87 1.617-7.962 2.426-12.274 2.426-4.275 0-8.321-.809-12.137-2.426-3.817-1.618-7.166-3.873-10.049-6.763-2.882-2.891-5.163-6.327-6.844-10.308-1.68-3.982-2.52-8.328-2.52-13.041h-.001Z"/>
</svg>

